<svg xmlns="http://www.w3.org/2000/svg" xml:space="preserve" width="48" height="48" viewBox="0 0 48 48" id="micro">
  <g id="Expanded">
    <path d="M24 38c-7.168 0-13-5.832-13-13V13c0-7.168 5.832-13 13-13s13 5.832 13 13v12c0 7.168-5.832 13-13 13zm0-36c-6.065 0-11 4.935-11 11v12c0 6.065 4.935 11 11 11s11-4.935 11-11V13c0-6.065-4.935-11-11-11z"></path>
    <path d="M24 42c-9.532 0-17-7.467-17-17v-4a1 1 0 1 1 2 0v4c0 8.411 6.589 15 15 15s15-6.589 15-15v-4a1 1 0 1 1 2 0v4c0 9.533-7.468 17-17 17z"></path>
    <path d="M23 41h2v7h-2zM24 8a1 1 0 0 1-1-1V1a1 1 0 1 1 2 0v6a1 1 0 0 1-1 1zM28 8a1 1 0 0 1-1-1V1.683a1 1 0 1 1 2 0V7a1 1 0 0 1-1 1zM20 8a1 1 0 0 1-1-1V1.683a1 1 0 1 1 2 0V7a1 1 0 0 1-1 1zM8 24h32v2H8zM20 14h-8a1 1 0 1 1 0-2h8a1 1 0 1 1 0 2zM20 18h-8a1 1 0 1 1 0-2h8a1 1 0 1 1 0 2zM36 14h-8a1 1 0 1 1 0-2h8a1 1 0 1 1 0 2zM36 18h-8a1 1 0 1 1 0-2h8a1 1 0 1 1 0 2zM20 22h-8a1 1 0 1 1 0-2h8a1 1 0 1 1 0 2zM36 22h-8a1 1 0 1 1 0-2h8a1 1 0 1 1 0 2z"></path>
  </g>
</svg>
